<?xml version="1.0" standalone="no"?>
<!DOCTYPE svg PUBLIC "-//W3C//DTD SVG 20010904//EN"
 "http://www.w3.org/TR/2001/REC-SVG-20010904/DTD/svg10.dtd">
<svg version="1.0" xmlns="http://www.w3.org/2000/svg"
 width="224.000000pt" height="224.000000pt" viewBox="0 0 224.000000 224.000000"
 preserveAspectRatio="xMidYMid meet">
<metadata>
Created by potrace 1.11, written by Peter Selinger 2001-2013
</metadata>
<g transform="translate(0.000000,224.000000) scale(0.100000,-0.100000)"
fill="#000000" stroke="none">
<path d="M993 2159 c-18 -5 -48 -25 -68 -44 -27 -27 -36 -46 -42 -87 -4 -29
-6 -59 -5 -65 2 -9 -11 -13 -40 -14 -24 0 -65 -6 -92 -12 -60 -14 -82 -45 -92
-127 -3 -30 -7 -56 -8 -57 0 -1 -21 -4 -46 -8 -24 -4 -48 -9 -52 -11 -15 -10
-27 -78 -23 -145 4 -84 22 -118 65 -120 17 -1 39 -2 49 -3 20 -1 36 -12 36
-24 0 -20 28 -69 44 -79 18 -11 116 -27 154 -25 13 1 17 -7 17 -38 0 -42 -2
-44 -80 -55 -73 -10 -139 -35 -151 -56 -5 -11 -12 -45 -15 -77 -3 -31 -6 -58
-7 -59 -5 -4 -79 26 -102 41 l-26 17 22 31 c30 41 26 85 -12 163 -44 90 -88
135 -130 135 -43 0 -83 -20 -87 -43 -2 -9 8 -39 23 -64 24 -45 25 -48 9 -60
-28 -20 -38 -16 -59 25 -39 76 -55 82 -127 46 -23 -12 -26 -19 -22 -50 11 -89
60 -186 115 -226 15 -11 42 -21 62 -22 27 -2 42 -11 64 -37 15 -19 35 -40 43
-47 31 -26 127 -70 180 -82 l55 -12 3 -57 c3 -62 27 -163 45 -192 7 -11 32
-23 62 -29 l50 -10 -2 -102 -2 -101 -31 -14 c-86 -36 -130 -103 -126 -191 2
-58 16 -79 60 -90 46 -12 62 -5 81 39 15 32 23 39 46 39 18 0 34 -9 48 -28 42
-56 51 -61 98 -58 65 5 77 22 78 109 1 98 -9 137 -43 167 -26 23 -29 32 -31
96 -1 39 1 82 4 97 7 25 8 26 96 25 50 -1 92 -4 94 -8 19 -31 22 -190 3 -205
-35 -27 -49 -67 -49 -136 0 -108 20 -149 72 -149 31 0 79 19 79 31 0 13 45 57
60 59 30 4 36 -1 54 -40 16 -37 28 -45 66 -41 28 3 58 23 67 45 15 35 5 117
-21 161 -24 39 -88 85 -120 85 -13 0 -16 11 -16 53 0 28 -3 75 -6 102 -6 48
-5 51 17 52 68 5 120 26 134 53 20 40 35 113 38 199 l2 55 59 13 c70 16 151
57 186 96 20 22 34 27 75 29 44 1 55 6 85 38 22 22 48 69 68 118 52 131 50
151 -17 171 -54 16 -73 5 -100 -58 -21 -49 -22 -50 -51 -39 -17 5 -30 12 -30
14 0 3 11 27 25 55 38 73 26 94 -63 106 -38 5 -62 -11 -96 -67 -54 -86 -76
-183 -51 -230 14 -28 14 -28 -25 -44 -67 -27 -76 -23 -84 36 -14 101 -37 118
-177 133 -76 9 -79 10 -79 48 0 24 5 33 18 34 101 6 169 33 178 70 12 57 16
63 37 65 60 4 84 16 95 46 12 36 8 162 -6 189 -11 19 -64 43 -97 43 -6 0 -12
21 -13 48 -3 66 -6 76 -25 105 -16 25 -47 33 -162 43 -16 1 -33 3 -36 3 -3 1
-6 20 -7 43 -4 97 -78 170 -179 174 -32 2 -73 -1 -90 -7z"/>
</g>
</svg>
